<?xml version="1.0" standalone="no"?>
<!DOCTYPE svg PUBLIC "-//W3C//DTD SVG 20010904//EN"
 "http://www.w3.org/TR/2001/REC-SVG-20010904/DTD/svg10.dtd">
<svg version="1.0" xmlns="http://www.w3.org/2000/svg"
 width="261.000000pt" height="261.000000pt" viewBox="0 0 261.000000 261.000000"
 preserveAspectRatio="xMidYMid meet">
<metadata>
Created by potrace 1.14, written by Peter Selinger 2001-2017
</metadata>
<g transform="translate(0.000000,261.000000) scale(0.100000,-0.100000)"
fill="#000000" stroke="none">
<path d="M1044 2594 c3 -9 6 -18 6 -20 0 -3 5 -2 10 1 6 3 10 1 10 -4 0 -6 -6
-11 -13 -11 -13 0 -15 -59 -2 -79 3 -6 1 -11 -4 -11 -6 0 -11 -4 -11 -10 0 -5
6 -7 14 -4 8 3 17 1 21 -5 3 -6 0 -9 -8 -5 -8 3 -18 1 -21 -4 -3 -5 -21 -8
-41 -6 -19 1 -37 -2 -41 -7 -3 -5 -10 -6 -17 -2 -6 3 -26 8 -44 9 -35 2 -36 0
-35 -58 1 -30 -5 -34 -28 -17 -12 9 -11 10 5 5 20 -6 20 -6 0 9 -18 14 -21 14
-34 -2 -13 -17 -13 -17 -6 2 4 11 7 28 7 39 -1 17 0 17 19 -3 24 -26 28 -26
25 -3 -2 9 -7 17 -12 17 -5 0 -14 3 -20 7 -6 4 -14 4 -18 0 -12 -11 -70 -9
-78 3 -5 6 -8 5 -8 -3 0 -7 -4 -11 -9 -8 -5 4 -8 -2 -7 -11 2 -9 8 -19 14 -21
7 -2 9 -8 6 -13 -3 -6 -12 -5 -22 3 -15 12 -16 11 -3 -4 10 -14 11 -18 1 -18
-9 0 -8 -6 4 -19 13 -15 14 -20 4 -24 -10 -3 -8 -9 6 -23 13 -13 16 -13 7 -2
-7 9 -8 19 -3 22 13 8 23 -20 16 -39 -5 -12 -10 -13 -20 -4 -10 8 -14 8 -14 0
0 -6 -11 -11 -25 -11 -14 0 -25 -4 -25 -10 0 -5 -5 -10 -11 -10 -5 0 -7 5 -4
10 8 13 -22 8 -55 -9 -23 -11 -23 -11 -6 3 17 14 16 15 -13 14 -19 -1 -31 -6
-31 -15 0 -7 0 -16 -1 -20 0 -4 4 -9 10 -11 7 -2 9 4 5 15 -5 14 -4 15 4 3 12
-16 7 -30 -11 -30 -18 0 -16 -92 3 -108 13 -11 13 -11 -1 -7 -12 5 -15 -3 -14
-48 1 -29 5 -59 10 -67 5 -9 4 -11 -3 -6 -7 4 -12 1 -12 -9 0 -11 5 -15 14
-12 10 4 13 1 9 -9 -3 -8 -8 -12 -11 -10 -3 3 -11 -2 -19 -12 -8 -9 -11 -11
-8 -4 6 11 3 12 -13 3 -25 -13 -35 -14 -28 -2 3 5 -8 8 -25 6 -17 -1 -35 -8
-40 -16 -7 -12 -9 -11 -9 1 0 9 -9 16 -20 16 -24 0 -25 -5 -3 -36 9 -14 10
-19 3 -12 -20 17 -35 15 -20 -3 10 -12 10 -15 0 -15 -10 0 -10 -3 -1 -14 9
-10 9 -16 1 -21 -8 -5 -6 -13 6 -26 9 -10 20 -16 25 -14 4 3 10 1 13 -4 7 -11
-13 -9 -33 3 -11 7 -13 4 -9 -12 7 -24 3 -25 -111 -23 -65 1 -74 -4 -60 -31 6
-12 7 -18 1 -14 -16 10 -9 -48 8 -62 13 -11 13 -11 -1 -7 -12 4 -15 -2 -15
-27 1 -30 -2 -33 -29 -33 -16 0 -33 -4 -37 -10 -5 -7 -8 -7 -8 0 0 6 -22 10
-48 10 l-49 0 0 -67 c-1 -45 3 -66 10 -61 6 4 7 1 1 -8 -5 -8 -9 -58 -10 -111
l0 -98 50 0 c28 0 66 0 84 0 17 0 32 -4 32 -10 0 -6 4 -9 8 -6 9 5 10 -22 1
-39 -4 -9 -4 -73 0 -113 1 -14 32 -12 43 3 5 6 8 5 8 -4 0 -10 3 -11 14 -2 10
8 16 9 21 1 3 -5 11 -10 16 -10 6 0 7 6 3 13 -6 9 -4 9 8 -1 12 -9 18 -10 23
-2 5 8 11 8 21 -1 10 -8 14 -35 14 -94 0 -80 1 -83 24 -87 14 -3 31 -1 38 3
10 7 10 9 -1 9 -8 0 -11 3 -8 6 4 4 12 2 19 -3 24 -19 58 -22 58 -6 0 8 -5 11
-12 7 -7 -5 -8 -3 -3 6 6 10 11 9 22 -5 7 -11 13 -16 13 -12 0 5 6 2 14 -5 8
-7 12 -16 9 -21 -2 -4 2 -7 9 -7 9 0 10 -3 2 -8 -13 -8 -13 -116 -1 -128 10
-11 117 -11 117 0 0 5 7 3 15 -4 12 -10 15 -10 15 1 0 8 5 6 14 -6 8 -11 11
-30 7 -49 -4 -17 -6 -51 -5 -76 l1 -45 84 -2 c104 -2 118 -3 102 -10 -7 -2
-13 -13 -13 -24 0 -10 6 -19 13 -19 9 0 9 -2 0 -8 -6 -4 -11 -25 -11 -46 0
-26 3 -34 9 -25 5 8 9 9 9 3 0 -5 -4 -14 -9 -20 -6 -5 -4 -14 5 -22 8 -7 14
-9 14 -5 0 9 78 8 124 -1 29 -5 48 -16 28 -16 -6 0 -9 -7 -6 -15 4 -8 11 -12
18 -8 7 5 7 2 -1 -8 -17 -20 -26 -79 -13 -79 7 0 7 -6 0 -20 -12 -22 -15 -21
77 -24 41 -1 53 2 54 14 0 13 1 13 7 0 4 -9 21 -15 42 -16 24 -1 35 -5 34 -16
-1 -8 4 -15 11 -15 8 0 11 7 7 16 -5 14 -4 14 11 2 15 -12 17 -12 12 1 -5 12
2 14 39 8 35 -5 46 -3 51 8 4 12 9 12 17 4 8 -8 15 -7 25 6 14 16 14 16 9 0
-3 -10 -1 -18 4 -18 6 0 10 5 10 12 0 9 3 9 12 0 9 -9 15 -7 25 6 8 9 11 11 7
3 -5 -11 -3 -13 9 -8 10 3 17 2 17 -3 0 -5 8 -8 18 -7 12 1 17 9 17 31 -1 17
-4 37 -8 44 -5 6 -4 12 1 12 10 0 9 30 -2 48 -4 7 -2 12 6 12 10 0 11 2 0 8
-23 15 29 28 104 26 l71 -2 1 44 c0 24 -3 44 -8 44 -13 0 -20 29 -8 36 6 4 8
3 4 -4 -3 -6 -2 -14 4 -17 13 -8 9 32 -4 54 -6 10 -5 12 2 7 7 -4 12 -2 12 4
0 6 5 8 11 4 6 -3 15 0 20 7 6 10 9 11 9 2 0 -7 5 -13 11 -13 5 0 7 6 3 13 -6
9 -4 9 7 1 16 -13 57 -13 78 0 10 7 12 6 6 -4 -6 -10 -4 -12 9 -7 10 4 21 7
24 7 4 1 -4 7 -18 16 -24 14 -24 15 -2 8 22 -6 23 -4 11 18 -18 32 -19 48 -4
42 10 -4 11 3 5 30 -4 21 -4 36 1 36 5 0 8 3 8 8 -3 19 2 25 11 12 5 -8 10
-10 10 -4 0 8 11 9 35 4 19 -4 35 -4 35 0 0 5 12 5 28 1 19 -6 31 -4 40 5 15
16 16 34 2 34 -5 0 -10 5 -10 11 0 5 4 7 10 4 6 -4 7 1 3 11 -5 12 -3 15 6 9
10 -6 11 -3 3 11 -5 11 -7 25 -4 33 2 8 0 11 -5 8 -5 -3 -10 0 -10 8 0 8 4 12
9 9 4 -3 8 -1 8 5 0 5 -6 12 -12 14 -25 10 64 15 115 6 29 -5 40 -3 47 10 6
11 9 12 10 3 0 -7 5 -10 10 -7 6 4 8 11 4 16 -10 17 -12 59 -2 59 5 0 7 4 4 9
-7 11 -24 9 -46 -3 -12 -7 -13 -7 -2 5 7 8 18 14 24 14 7 0 13 12 13 28 2 30
7 38 27 41 7 1 19 6 27 10 10 6 12 5 7 -2 -4 -7 -2 -12 3 -12 6 0 11 6 11 13
0 7 3 8 8 2 4 -5 25 -9 47 -9 58 2 59 3 45 19 -7 8 -8 15 -3 15 5 0 8 29 7 65
-2 38 2 67 8 71 6 4 46 6 89 6 76 -1 79 0 75 21 -2 12 -9 21 -16 19 -6 -1 -9
2 -5 8 3 6 11 8 16 4 18 -11 7 99 -10 114 -14 11 -14 11 0 6 14 -4 17 2 17 38
1 23 -5 49 -11 57 -8 10 -9 13 0 8 7 -5 11 4 11 28 0 39 -12 52 -32 36 -7 -6
-16 -8 -20 -4 -13 14 -46 9 -47 -6 -1 -9 -5 -5 -9 9 -4 14 -8 19 -9 12 -1 -7
-12 -11 -30 -10 l-29 2 2 76 c2 86 0 100 -21 100 -8 0 -12 -4 -9 -9 3 -5 -2
-15 -12 -22 -15 -12 -16 -12 -5 2 17 21 7 29 -34 29 -20 0 -33 -5 -33 -12 0
-10 -2 -10 -8 -2 -4 7 -18 14 -32 15 -27 4 -32 22 -17 53 8 16 6 18 -8 12 -15
-5 -16 -4 -5 9 7 8 9 15 5 15 -4 0 -3 6 3 13 9 10 7 19 -5 37 -9 13 -11 20 -5
16 7 -4 12 -2 12 6 0 14 -48 17 -68 4 -7 -4 -12 -4 -12 1 0 10 -63 11 -71 0
-3 -4 -14 2 -25 14 -10 13 -14 20 -8 16 6 -3 11 0 11 8 0 8 -5 11 -11 8 -6 -4
-5 1 3 10 11 14 11 17 0 17 -11 0 -11 2 1 10 10 6 11 10 3 10 -7 0 -13 5 -13
11 0 5 5 7 10 4 6 -3 10 -1 10 4 0 6 -6 11 -12 11 -10 0 -10 2 -1 8 15 9 13
54 -2 49 -5 -2 -9 -13 -8 -23 1 -10 0 -13 -3 -7 -3 7 -5 15 -4 19 4 17 -26 22
-44 6 -11 -9 -16 -11 -12 -4 7 12 4 12 -14 2 -15 -8 -20 -8 -16 -1 9 14 0 14
-26 0 -12 -6 -18 -7 -14 -1 3 5 -4 13 -17 17 -12 3 -17 8 -11 11 6 3 9 16 6
29 -2 14 -9 22 -16 19 -6 -3 -3 1 7 9 13 11 15 16 5 19 -7 3 -17 0 -23 -6 -5
-6 -9 -9 -8 -7 2 2 -2 10 -7 16 -8 9 -3 12 18 9 26 -3 27 -2 24 37 -4 37 -5
38 -19 22 -8 -10 -12 -13 -9 -6 4 6 2 14 -4 18 -5 3 -10 2 -10 -2 0 -9 -103
-8 -127 1 -7 3 -10 11 -7 19 3 8 -2 20 -11 27 -8 7 -15 17 -15 23 0 6 6 2 14
-8 13 -18 14 -17 14 18 0 27 -4 37 -16 38 -14 0 -15 1 -2 7 21 10 22 50 1 48
-9 0 -19 -5 -23 -11 -5 -6 -8 -5 -8 4 0 10 -3 11 -14 2 -10 -8 -16 -9 -21 -2
-7 12 -32 10 -52 -2 -8 -5 -13 -3 -13 3 0 6 -4 8 -10 5 -5 -3 -10 -1 -10 5 0
6 -5 8 -12 4 -7 -5 -8 -3 -2 7 12 20 14 40 3 33 -5 -3 -9 0 -9 5 0 6 3 11 8
11 4 0 7 15 7 34 0 19 -3 32 -7 30 -4 -3 -8 0 -8 5 0 6 4 11 10 11 5 0 7 6 5
13 -6 15 -65 20 -65 6 0 -6 4 -8 8 -5 4 2 14 0 22 -5 11 -7 9 -8 -8 -6 -13 2
-27 8 -30 14 -10 16 -352 16 -352 0 0 -8 -4 -7 -9 2 -8 12 -14 13 -36 3 -15
-7 -24 -8 -20 -2 3 6 -3 10 -15 10 -16 0 -20 -4 -16 -16z m96 -38 c0 -6 -7 -1
-15 10 -8 10 -15 23 -15 28 0 6 7 1 15 -10 8 -10 15 -23 15 -28z m25 34 c3 -5
1 -10 -4 -10 -6 0 -11 5 -11 10 0 6 2 10 4 10 3 0 8 -4 11 -10z m41 -14 c0
-14 -4 -22 -8 -20 -5 3 -6 10 -3 15 4 5 0 9 -7 9 -9 0 -9 3 2 10 8 5 15 10 16
10 0 0 0 -11 0 -24z m219 14 c-3 -5 -14 -10 -23 -9 -14 0 -13 2 3 9 27 11 27
11 20 0z m58 -3 c3 -8 2 -20 -3 -26 -5 -9 -7 -4 -7 13 0 29 2 32 10 13z m-383
-17 c0 -5 -5 -10 -11 -10 -5 0 -7 5 -4 10 3 6 8 10 11 10 2 0 4 -4 4 -10z
m353 -7 c-3 -7 -9 -10 -14 -7 -14 8 -11 21 5 21 8 0 12 -6 9 -14z m92 -35 c-2
-17 -8 -22 -24 -21 -15 2 -20 -1 -15 -9 4 -7 3 -8 -5 -4 -16 11 -2 28 18 21
12 -3 17 1 17 15 0 14 -5 18 -17 15 -10 -3 -20 -1 -24 4 -4 7 1 8 11 4 12 -5
15 -3 9 6 -6 10 -3 11 12 3 12 -7 19 -20 18 -34z m-390 -11 c4 5 5 2 0 -6 -7
-12 -10 -11 -20 2 -7 9 -14 15 -16 12 -3 -2 -6 6 -6 17 -2 20 0 20 16 -5 10
-15 21 -24 26 -20z m29 15 c-1 -15 3 -21 11 -18 14 5 14 -19 0 -31 -4 -4 -5
-3 -2 3 4 7 0 14 -8 17 -8 4 -12 15 -10 27 3 16 0 20 -10 16 -8 -3 -15 -1 -15
5 0 6 8 9 18 7 11 -2 17 -12 16 -26z m238 -2 c-2 -13 1 -20 6 -16 6 4 13 2 16
-3 4 -5 -2 -8 -11 -7 -10 2 -18 11 -18 22 0 10 -4 23 -10 27 -6 5 -4 7 5 4 9
-2 14 -13 12 -27z m-327 2 c-3 -3 -11 0 -18 7 -9 10 -8 11 6 5 10 -3 15 -9 12
-12z m375 -2 c0 -5 -4 -10 -10 -10 -5 0 -10 5 -10 10 0 6 5 10 10 10 6 0 10
-4 10 -10z m-380 -20 c0 -5 -8 -10 -17 -10 -15 0 -16 2 -3 10 19 12 20 12 20
0z m31 -14 c5 3 12 -1 15 -9 3 -8 13 -13 24 -10 10 3 20 1 23 -4 3 -5 -6 -8
-20 -7 -13 0 -28 6 -32 13 -5 7 -12 12 -17 11 -5 -1 -9 3 -10 10 -2 6 -1 7 3
0 2 -5 9 -8 14 -4z m362 1 c3 -8 2 -20 -3 -26 -5 -9 -7 -4 -7 13 0 29 2 32 10
13z m-76 -19 c-3 -8 -6 -5 -6 6 -1 11 2 17 5 13 3 -3 4 -12 1 -19z m53 8 c0
-2 -7 -6 -15 -10 -8 -3 -15 -1 -15 4 0 6 7 10 15 10 8 0 15 -2 15 -4z m-370
-16 c0 -5 -2 -10 -4 -10 -3 0 -8 5 -11 10 -3 6 -1 10 4 10 6 0 11 -4 11 -10z
m455 0 c2 -4 -3 -14 -13 -21 -15 -13 -16 -12 -4 3 12 15 11 17 -7 15 -12 -1
-21 -8 -21 -16 0 -8 -3 -12 -6 -8 -4 3 -4 12 -1 19 5 15 44 21 52 8z m-423
-14 c7 4 8 2 4 -5 -9 -13 -26 -5 -25 12 0 9 2 8 6 -1 2 -6 10 -9 15 -6z m52
-4 c3 -5 -1 -9 -9 -9 -8 0 -12 4 -9 9 3 4 7 8 9 8 2 0 6 -4 9 -8z m256 4 c0
-3 -4 -8 -10 -11 -5 -3 -10 -1 -10 4 0 6 5 11 10 11 6 0 10 -2 10 -4z m35 -6
c3 -6 -1 -7 -9 -4 -18 7 -21 14 -7 14 6 0 13 -4 16 -10z m148 -42 c-6 -7 -9
-21 -8 -31 2 -9 -1 -15 -6 -11 -5 3 -9 0 -9 -7 0 -7 -3 -10 -6 -6 -3 3 -2 12
2 19 5 7 9 15 10 18 3 17 17 40 22 36 3 -3 0 -11 -5 -18z m-872 -8 c6 0 8 4 5
8 -2 4 4 8 14 8 10 0 16 -4 13 -9 -3 -5 5 -6 18 -2 13 3 19 3 14 -2 -16 -12
-12 -48 5 -48 42 -1 57 -15 56 -52 l-1 -37 -60 -1 -60 0 3 30 c1 17 3 37 3 46
0 9 7 16 15 16 8 0 13 -6 10 -13 -3 -7 2 -18 10 -25 12 -10 12 -14 2 -20 -7
-4 -9 -12 -4 -16 5 -4 11 -2 13 5 4 10 9 8 20 -5 8 -10 11 -11 7 -3 -4 8 -14
23 -22 33 -9 10 -11 17 -4 17 6 0 19 -11 28 -25 17 -26 26 -26 30 0 1 9 -4 11
-14 7 -14 -5 -15 -3 -4 10 10 13 10 17 -2 21 -11 4 -13 1 -9 -11 6 -15 5 -16
-13 -2 -21 17 -38 40 -39 54 0 5 -6 10 -13 12 -7 1 -8 0 -3 -2 7 -4 6 -10 -2
-19 -7 -7 -15 -11 -19 -9 -4 2 -10 -1 -14 -7 -5 -8 -3 -9 6 -4 10 6 12 4 7 -9
-5 -11 -3 -15 5 -10 7 5 8 3 3 -5 -6 -10 -11 -9 -23 3 -14 14 -14 17 3 35 16
19 16 21 1 27 -9 3 -13 11 -9 17 5 8 8 7 11 -1 2 -7 8 -12 13 -12z m914 10 c3
-6 -1 -7 -9 -4 -18 7 -21 14 -7 14 6 0 13 -4 16 -10z m-1 -36 c3 -8 2 -12 -4
-9 -6 3 -10 10 -10 16 0 14 7 11 14 -7z m71 -14 c-3 -5 -12 -10 -18 -10 -7 0
-6 4 3 10 19 12 23 12 15 0z m-815 -10 c0 -5 -2 -10 -4 -10 -3 0 -8 5 -11 10
-3 6 -1 10 4 10 6 0 11 -4 11 -10z m40 0 c0 -5 -2 -10 -4 -10 -3 0 -8 5 -11
10 -3 6 -1 10 4 10 6 0 11 -4 11 -10z m80 0 c0 -5 -2 -10 -4 -10 -3 0 -8 5
-11 10 -3 6 -1 10 4 10 6 0 11 -4 11 -10z m588 -12 c-2 -6 -12 -12 -21 -14 -9
-1 -15 2 -11 7 3 5 10 7 15 4 5 -4 9 -1 9 4 0 6 3 11 6 11 3 0 4 -5 2 -12z
m37 -8 c3 -6 -1 -7 -9 -4 -18 7 -21 14 -7 14 6 0 13 -4 16 -10z m-745 -20 c0
-5 -5 -10 -11 -10 -5 0 -7 5 -4 10 3 6 8 10 11 10 2 0 4 -4 4 -10z m80 6 c0
-3 -4 -8 -10 -11 -5 -3 -10 -1 -10 4 0 6 5 11 10 11 6 0 10 -2 10 -4z m40 0
c0 -3 -4 -8 -10 -11 -5 -3 -10 -1 -10 4 0 6 5 11 10 11 6 0 10 -2 10 -4z m551
-29 c-10 -9 -11 -8 -5 6 3 10 9 15 12 12 3 -3 0 -11 -7 -18z m79 -12 c0 -5 -5
-3 -10 5 -5 8 -10 20 -10 25 0 6 5 3 10 -5 5 -8 10 -19 10 -25z m60 0 c0 -5
-5 -3 -10 5 -5 8 -10 20 -10 25 0 6 5 3 10 -5 5 -8 10 -19 10 -25z m-1033 -56
c2 -18 1 -20 -6 -9 -5 8 -8 17 -5 21 2 4 -1 10 -6 12 -6 3 -5 4 1 3 7 -1 14
-13 16 -27z m1080 -1 c4 -28 -6 -18 -12 12 -2 12 -1 20 2 16 4 -4 8 -16 10
-28z m-1116 2 c9 13 10 12 5 -2 -3 -10 -1 -18 4 -18 6 0 10 -5 10 -11 0 -8 -5
-8 -15 1 -12 10 -18 10 -30 0 -10 -9 -15 -9 -15 -1 0 6 5 11 12 11 9 0 9 3 0
12 -7 7 -12 17 -12 23 0 5 7 1 16 -10 13 -17 16 -18 25 -5z m-54 -22 c-3 -7
-5 -2 -5 12 0 14 2 19 5 13 2 -7 2 -19 0 -25z m1272 19 c-2 -2 -11 -8 -20 -15
-12 -9 -16 -9 -16 1 0 7 9 14 20 14 11 1 18 1 16 0z m-1281 -44 c2 -7 -1 -13
-8 -13 -6 0 -8 5 -4 12 5 8 2 9 -9 5 -10 -3 -17 -2 -17 4 0 14 32 7 38 -8z
m1222 -2 c0 -13 -29 -8 -34 5 -3 7 2 10 15 7 10 -3 19 -9 19 -12z m-1160 -1
c0 -5 -4 -10 -10 -10 -5 0 -10 5 -10 10 0 6 5 10 10 10 6 0 10 -4 10 -10z m37
-31 c2 -18 1 -20 -6 -9 -5 8 -8 17 -5 21 2 4 -1 10 -6 12 -6 3 -5 4 1 3 7 -1
14 -13 16 -27z m-117 -8 c1 -14 2 -14 11 2 5 9 15 17 20 17 6 0 3 -8 -7 -17
-16 -16 -15 -18 4 -26 12 -5 23 -16 27 -25 4 -12 2 -12 -8 -4 -8 7 -18 8 -22
4 -5 -4 -5 -1 -1 6 4 6 3 12 -3 12 -5 0 -19 13 -31 30 -16 22 -17 28 -6 24 9
-3 16 -14 16 -23z m1272 10 c-5 -14 -4 -14 14 -1 18 14 18 14 5 -2 -17 -23
-27 -23 -33 0 -3 11 0 19 7 19 8 0 11 -7 7 -16z m-1217 -10 c-3 -6 -11 -11
-16 -11 -5 0 -4 6 3 14 14 16 24 13 13 -3z m27 -3 c-17 -17 -15 -33 3 -18 10
9 15 9 15 1 0 -6 -5 -11 -11 -11 -5 0 -7 -6 -3 -12 4 -7 -1 -6 -10 3 -15 14
-16 20 -5 37 7 12 15 19 18 16 3 -2 -1 -10 -7 -16z m1118 6 c0 -8 -19 -13 -24
-6 -3 5 1 9 9 9 8 0 15 -2 15 -3z m-1204 -36 l19 -23 -25 20 c-14 11 -27 21
-29 22 -2 2 0 3 6 3 5 0 18 -10 29 -22z m1389 -47 c-9 -8 -36 -10 -30 -2 2 4
11 8 20 8 8 0 13 -3 10 -6z m61 -23 c3 -4 -1 -5 -10 -4 -8 1 -18 5 -22 8 -3 4
1 5 10 4 8 -1 18 -5 22 -8z m39 2 c-3 -5 -12 -10 -18 -10 -7 0 -6 4 3 10 19
12 23 12 15 0z m-78 -32 c-3 -8 -6 -5 -6 6 -1 11 2 17 5 13 3 -3 4 -12 1 -19z
m33 -13 c-10 -12 -10 -18 1 -32 12 -17 12 -17 -6 -1 -15 14 -16 20 -5 32 7 9
15 16 17 16 3 0 0 -7 -7 -15z m45 5 c3 -6 -1 -7 -9 -4 -18 7 -21 14 -7 14 6 0
13 -4 16 -10z m-105 -44 c0 -2 -8 -10 -17 -17 -16 -13 -17 -12 -4 4 13 16 21
21 21 13z m45 -14 c-3 -3 -11 0 -18 7 -9 10 -8 11 6 5 10 -3 15 -9 12 -12z
m-1365 2 c0 -8 -19 -13 -24 -6 -3 5 1 9 9 9 8 0 15 -2 15 -3z m1520 -38 c0 -2
-7 -7 -16 -10 -8 -3 -12 -2 -9 4 6 10 25 14 25 6z m-1702 -36 c-7 -10 -14 -17
-17 -15 -4 4 18 35 25 35 2 0 -1 -9 -8 -20z m1722 16 c0 -2 -7 -7 -16 -10 -8
-3 -12 -2 -9 4 6 10 25 14 25 6z m39 -30 c-3 -3 -11 5 -18 17 -13 21 -12 21 5
5 10 -10 16 -20 13 -22z m-79 20 c0 -2 -6 -9 -14 -15 -11 -9 -16 -9 -22 0 -4
7 -3 9 4 5 6 -3 13 -2 17 4 6 10 15 14 15 6z m-1650 -10 c0 -2 -8 -10 -17 -17
-16 -13 -17 -12 -4 4 13 16 21 21 21 13z m1701 -13 c13 -16 12 -17 -3 -4 -10
7 -18 15 -18 17 0 8 8 3 21 -13z m-1770 -10 c13 -16 12 -17 -3 -4 -10 7 -18
15 -18 17 0 8 8 3 21 -13z m1758 -27 c-3 -3 -11 5 -18 17 -13 21 -12 21 5 5
10 -10 16 -20 13 -22z m-1680 11 c-2 -2 -11 -8 -20 -15 -12 -9 -16 -9 -16 1 0
7 9 14 20 14 11 1 18 1 16 0z m1652 -14 c12 -16 12 -17 -2 -6 -9 7 -20 9 -24
5 -5 -4 -5 -1 -1 6 9 16 11 15 27 -5z m-1656 -32 c3 -5 2 -12 -3 -15 -5 -3 -9
1 -9 9 0 17 3 19 12 6z m1661 -3 c4 -7 4 -10 -1 -6 -4 4 -15 2 -24 -5 -14 -11
-14 -10 -2 6 16 20 18 21 27 5z m144 -58 c0 -5 -2 -10 -4 -10 -3 0 -8 5 -11
10 -3 6 -1 10 4 10 6 0 11 -4 11 -10z m-2040 -20 c0 -5 -2 -10 -4 -10 -3 0 -8
5 -11 10 -3 6 -1 10 4 10 6 0 11 -4 11 -10z m40 6 c0 -3 -4 -8 -10 -11 -5 -3
-10 -1 -10 4 0 6 5 11 10 11 6 0 10 -2 10 -4z m2084 -28 c-3 -4 -9 -8 -15 -8
-5 0 -9 4 -9 8 0 5 7 9 15 9 8 0 12 -4 9 -9z m-2143 -15 c13 -16 12 -17 -3 -4
-10 7 -18 15 -18 17 0 8 8 3 21 -13z m36 -8 c0 -8 -4 -12 -9 -9 -4 3 -8 9 -8
15 0 5 4 9 8 9 5 0 9 -7 9 -15z m2069 3 c3 -4 -1 -5 -10 -4 -8 1 -18 5 -22 8
-3 4 1 5 10 4 8 -1 18 -5 22 -8z m-46 -18 c0 -5 -2 -10 -4 -10 -3 0 -8 5 -11
10 -3 6 -1 10 4 10 6 0 11 -4 11 -10z m124 2 c2 -4 -4 -8 -14 -8 -10 0 -16 4
-14 8 3 4 9 8 14 8 5 0 11 -4 14 -8z m-2148 -24 c3 -4 -1 -5 -10 -4 -8 1 -18
5 -22 8 -3 4 1 5 10 4 8 -1 18 -5 22 -8z m78 4 c2 -4 -5 -9 -17 -9 -17 -2 -19
0 -7 7 18 12 18 12 24 2z m-103 -29 c13 -16 12 -17 -3 -4 -10 7 -18 15 -18 17
0 8 8 3 21 -13z m-76 -52 c3 -5 2 -12 -3 -15 -5 -3 -9 1 -9 9 0 17 3 19 12 6z
m2296 -14 c-10 -9 -11 -8 -5 6 3 10 9 15 12 12 3 -3 0 -11 -7 -18z m-2319 -22
c2 3 5 -2 5 -10 0 -19 1 -20 -28 12 -17 20 -18 23 -3 10 11 -9 23 -15 26 -12z
m2379 8 c13 -16 12 -17 -3 -4 -10 7 -18 15 -18 17 0 8 8 3 21 -13z m-39 -14
c2 -2 1 -3 -1 -2 -2 2 -9 -2 -16 -7 -8 -7 -12 -5 -12 4 0 12 22 16 29 5z m107
-32 c8 -10 7 -14 -2 -14 -8 0 -14 6 -14 14 0 7 1 13 2 13 2 0 8 -6 14 -13z
m-2522 -14 c0 -10 -4 -10 -16 -1 -9 7 -18 13 -20 15 -2 1 5 1 16 0 11 0 20 -7
20 -14z m63 12 c0 -7 -30 -13 -34 -7 -3 4 4 9 15 9 10 1 19 0 19 -2z m2391
-32 c13 -16 12 -17 -3 -4 -17 13 -22 21 -14 21 2 0 10 -8 17 -17z m-2413 -18
c-3 -3 -9 2 -12 12 -6 14 -5 15 5 6 7 -7 10 -15 7 -18z m-34 7 c3 -5 -1 -9 -9
-9 -8 0 -12 4 -9 9 3 4 7 8 9 8 2 0 6 -4 9 -8z m2492 -28 c1 -9 -1 -13 -4 -9
-4 4 -7 10 -7 13 0 4 -4 14 -9 22 -7 12 -6 13 4 3 8 -7 15 -20 16 -29z m-79
11 c0 -8 -10 -23 -21 -32 -21 -18 -21 -18 -2 5 11 12 16 22 12 22 -4 0 -4 5
-1 10 9 14 12 13 12 -5z m47 -3 c2 -4 -4 -8 -14 -8 -10 0 -16 4 -14 8 3 4 9 8
14 8 5 0 11 -4 14 -8z m-2364 -36 c0 -2 -7 -7 -16 -10 -8 -3 -12 -2 -9 4 6 10
25 14 25 6z m-122 -31 c-3 -3 -9 2 -12 12 -6 14 -5 15 5 6 7 -7 10 -15 7 -18z
m2413 -8 c-10 -9 -11 -8 -5 6 3 10 9 15 12 12 3 -3 0 -11 -7 -18z m-2391 -27
c0 -5 -2 -10 -4 -10 -3 0 -8 5 -11 10 -3 6 -1 10 4 10 6 0 11 -4 11 -10z m80
1 c0 -6 -4 -12 -8 -15 -5 -3 -9 1 -9 9 0 8 4 15 9 15 4 0 8 -4 8 -9z m2416
-17 c1 -9 0 -13 -4 -10 -3 4 -7 14 -8 22 -1 9 0 13 4 10 3 -4 7 -14 8 -22z
m-23 -19 c4 3 5 2 2 -2 -3 -4 -13 -8 -21 -9 -9 -1 -13 0 -10 3 3 4 0 13 -6 22
-10 12 -7 12 8 -2 11 -9 24 -15 27 -12z m-2478 6 c3 -5 2 -12 -3 -15 -5 -3 -9
1 -9 9 0 17 3 19 12 6z m96 -18 c13 -16 12 -17 -3 -4 -10 7 -18 15 -18 17 0 8
8 3 21 -13z m2253 -51 c3 -5 -1 -9 -9 -9 -8 0 -12 4 -9 9 3 4 7 8 9 8 2 0 6
-4 9 -8z m-60 -21 c-7 -8 -54 -9 -49 -1 2 3 15 6 29 6 14 0 23 -2 20 -5z m57
-18 c13 -16 12 -17 -3 -4 -17 13 -22 21 -14 21 2 0 10 -8 17 -17z m-124 -48
c0 -8 -4 -12 -9 -9 -5 3 -6 10 -3 15 9 13 12 11 12 -6z m102 -8 c8 -10 7 -14
-2 -14 -8 0 -14 6 -14 14 0 7 1 13 2 13 2 0 8 -6 14 -13z m-65 -13 c3 -8 2
-12 -4 -9 -6 3 -10 10 -10 16 0 14 7 11 14 -7z m-34 -14 c0 -5 -2 -10 -4 -10
-3 0 -8 5 -11 10 -3 6 -1 10 4 10 6 0 11 -4 11 -10z m-1885 -48 c-3 -3 -11 0
-18 7 -9 10 -8 11 6 5 10 -3 15 -9 12 -12z m1729 10 c2 -4 -4 -8 -14 -8 -10 0
-16 4 -14 8 3 4 9 8 14 8 5 0 11 -4 14 -8z m116 4 c0 -2 -7 -7 -16 -10 -8 -3
-12 -2 -9 4 6 10 25 14 25 6z m-85 -15 c3 -5 2 -12 -3 -15 -5 -3 -9 1 -9 9 0
17 3 19 12 6z m-1661 -9 c3 -5 -1 -9 -9 -9 -8 0 -12 4 -9 9 3 4 7 8 9 8 2 0 6
-4 9 -8z m-97 -17 c0 -8 -4 -12 -9 -9 -5 3 -6 10 -3 15 9 13 12 11 12 -6z
m1801 -14 c-7 -9 -13 -18 -15 -20 -1 -2 -1 5 0 16 0 11 7 20 14 20 10 0 10 -4
1 -16z m-1740 -16 c-3 -3 -9 2 -12 12 -6 14 -5 15 5 6 7 -7 10 -15 7 -18z
m-23 6 c3 -5 2 -12 -3 -15 -5 -3 -9 1 -9 9 0 17 3 19 12 6z m-34 -18 c13 -16
12 -17 -3 -4 -10 7 -18 15 -18 17 0 8 8 3 21 -13z m1765 -5 c3 -4 -1 -5 -10
-4 -8 1 -18 5 -22 8 -3 4 1 5 10 4 8 -1 18 -5 22 -8z m-1706 -14 c0 -8 -19
-13 -24 -6 -3 5 1 9 9 9 8 0 15 -2 15 -3z m1671 -11 c12 -16 12 -17 -2 -6 -9
7 -20 9 -24 5 -5 -4 -5 -1 -1 6 9 16 11 15 27 -5z m68 -40 c2 -2 -3 -3 -11 -3
-9 0 -19 7 -22 16 -6 15 -4 15 11 3 10 -7 20 -15 22 -16z m-239 -33 c0 -5 -5
-10 -11 -10 -5 0 -7 5 -4 10 3 6 8 10 11 10 2 0 4 -4 4 -10z m-1304 -40 c0
-12 -4 -16 -9 -11 -5 5 -6 14 -3 20 10 15 12 14 12 -9z m-106 4 c0 -8 -19 -13
-24 -6 -3 5 1 9 9 9 8 0 15 -2 15 -3z m1446 -39 c0 -13 -3 -22 -7 -20 -4 3 -6
13 -4 23 1 9 -2 24 -8 32 -9 12 -9 13 3 2 8 -7 15 -23 16 -37z m-33 22 c3 -7
-3 -13 -14 -13 -13 0 -15 3 -7 13 6 7 12 13 13 13 2 0 5 -6 8 -13z m61 -27
c-6 -6 -10 -3 -10 10 0 13 4 16 10 10 7 -7 7 -13 0 -20z m-1391 6 c3 3 4 -1 3
-10 -1 -8 -5 -18 -9 -21 -4 -3 -5 -2 -2 2 3 3 -3 16 -12 27 -14 15 -14 18 -2
8 9 -6 18 -9 22 -6z m47 -10 c0 -2 -8 -10 -17 -17 -16 -13 -17 -12 -4 4 13 16
21 21 21 13z m1344 -38 c-3 -4 -9 -8 -15 -8 -5 0 -9 4 -9 8 0 5 7 9 15 9 8 0
12 -4 9 -9z m-1223 -55 c13 -16 12 -17 -3 -4 -10 7 -18 15 -18 17 0 8 8 3 21
-13z m-77 -24 c-10 -12 -18 -24 -17 -28 1 -3 0 -8 -2 -9 -2 -2 -3 3 -1 11 2
16 25 47 34 47 3 0 -3 -9 -14 -21z m37 -2 c-6 -8 -9 -16 -6 -19 3 -2 -2 -5
-10 -5 -13 0 -13 3 2 19 19 21 31 25 14 5z m93 5 c2 -4 -5 -9 -17 -9 -17 -2
-19 0 -7 7 18 12 18 12 24 2z m1033 -14 c-3 -8 -6 -5 -6 6 -1 11 2 17 5 13 3
-3 4 -12 1 -19z m-33 3 c4 -5 -3 -7 -14 -4 -23 6 -26 13 -6 13 8 0 17 -4 20
-9z m-1060 -9 c3 -5 -1 -9 -9 -9 -8 0 -12 4 -9 9 3 4 7 8 9 8 2 0 6 -4 9 -8z
m968 -19 c-6 -2 -10 -9 -7 -13 3 -5 1 -11 -4 -14 -7 -5 -8 11 -2 32 1 1 7 2
14 1 9 0 9 -2 -1 -6z m-1008 -52 c-2 -3 -12 3 -22 13 -16 17 -16 18 5 5 12 -7
20 -15 17 -18z m53 11 c-10 -10 -15 -21 -12 -24 3 -2 -2 -5 -10 -5 -12 0 -10
6 7 24 25 27 39 32 15 5z m35 -5 c-7 -8 -10 -16 -7 -19 3 -2 -1 -5 -9 -5 -12
0 -11 5 2 23 9 12 19 20 21 18 2 -2 -1 -10 -7 -17z m923 3 c-3 -5 -12 -10 -18
-10 -7 0 -6 4 3 10 19 12 23 12 15 0z m-1044 -17 c13 -16 12 -17 -3 -4 -10 7
-18 15 -18 17 0 8 8 3 21 -13z m1119 -3 c0 -5 -4 -10 -10 -10 -5 0 -10 5 -10
10 0 6 5 10 10 10 6 0 10 -4 10 -10z m-255 -40 c-3 -5 -12 -10 -18 -10 -7 0
-6 4 3 10 19 12 23 12 15 0z m105 -7 c0 -2 -8 -3 -17 -1 -10 2 -24 -3 -31 -12
-11 -13 -12 -12 -3 7 8 15 17 20 31 16 11 -3 20 -7 20 -10z m-770 3 c0 -3 -4
-8 -10 -11 -5 -3 -10 -1 -10 4 0 6 5 11 10 11 6 0 10 -2 10 -4z m785 -16 c-3
-5 -12 -10 -18 -10 -7 0 -6 4 3 10 19 12 23 12 15 0z m-105 -9 c0 -5 -7 -12
-16 -15 -8 -3 -12 -11 -8 -17 4 -8 3 -9 -4 -5 -9 5 -8 12 1 26 12 21 27 26 27
11z m-684 -17 c-4 -9 -2 -22 4 -29 7 -8 5 -12 -5 -12 -8 0 -11 5 -8 10 4 7 -1
8 -12 3 -18 -6 -18 -6 -2 12 9 10 14 22 10 25 -3 4 -1 7 6 7 8 0 11 -6 7 -16z
m81 10 c-3 -3 -12 -4 -19 -1 -8 3 -5 6 6 6 11 1 17 -2 13 -5z m647 -13 c-10
-10 -21 -16 -24 -14 -3 3 4 11 14 19 28 20 33 17 10 -5z m-640 -12 c-10 -12
-17 -24 -16 -28 20 -35 20 -37 2 -37 -12 0 -16 4 -11 11 4 5 7 22 6 37 -1 15
2 25 6 22 4 -2 10 0 14 6 3 5 9 10 12 10 3 0 -2 -9 -13 -21z m673 0 c2 -16 -1
-19 -9 -11 -5 5 -7 15 -4 21 10 15 12 14 13 -10z m-21 -21 c5 -7 3 -8 -6 -3
-9 5 -10 1 -6 -16 6 -20 5 -21 -4 -6 -6 9 -8 22 -5 27 8 13 12 13 21 -2z m-56
-6 c0 -4 -9 -13 -20 -20 -19 -12 -20 -11 -8 8 13 20 28 27 28 12z m-650 -37
c7 -9 8 -15 2 -15 -5 0 -12 7 -16 15 -3 8 -4 15 -2 15 2 0 9 -7 16 -15z m684
-1 c3 -8 2 -12 -4 -9 -6 3 -10 10 -10 16 0 14 7 11 14 -7z m56 12 c0 -2 -7 -6
-15 -10 -8 -3 -15 -1 -15 4 0 6 7 10 15 10 8 0 15 -2 15 -4z m-100 -20 c0 -2
-7 -7 -16 -10 -8 -3 -12 -2 -9 4 6 10 25 14 25 6z m120 -6 c8 -5 11 -10 5 -10
-5 0 -17 5 -25 10 -8 5 -10 10 -5 10 6 0 17 -5 25 -10z m-630 -41 c0 -5 -4 -9
-8 -9 -5 0 -9 7 -9 15 0 8 4 12 9 9 4 -3 8 -9 8 -15z m120 -4 c0 -1 -8 -5 -18
-7 -11 -3 -19 0 -19 7 0 7 8 10 19 7 10 -2 18 -6 18 -7z m260 3 c0 -3 -9 -6
-20 -5 -11 1 -20 5 -20 9 0 3 9 6 20 5 11 -1 20 -5 20 -9z m31 -21 c-5 -5 -17
-7 -27 -4 -16 4 -15 5 3 6 17 1 21 6 17 19 -5 14 -4 15 5 2 5 -8 6 -19 2 -23z
m-337 -3 c3 -8 2 -12 -4 -9 -6 3 -10 10 -10 16 0 14 7 11 14 -7z m258 -13 c-2
-14 1 -20 10 -19 8 2 12 -5 11 -19 -2 -13 2 -22 9 -20 7 1 13 -7 15 -18 3 -18
2 -18 -5 -2 -4 10 -12 18 -17 18 -6 0 -9 9 -8 20 2 11 -3 18 -10 16 -6 -1 -12
7 -12 18 0 11 -4 24 -10 28 -6 5 -4 7 5 4 9 -2 14 -13 12 -26z m-297 -11 c-3
-5 1 -10 7 -13 7 -3 3 -4 -8 -4 -15 1 -20 6 -16 16 4 10 1 12 -8 6 -8 -5 -11
-4 -6 3 4 6 13 9 21 6 8 -4 13 -10 10 -14z m390 10 c-3 -5 -12 -10 -18 -10 -7
0 -6 4 3 10 19 12 23 12 15 0z m31 -7 c-2 -9 -8 -19 -14 -21 -7 -2 -9 -9 -6
-14 4 -7 2 -8 -4 -4 -17 10 -15 26 3 26 9 0 12 6 9 15 -4 8 -2 15 4 15 6 0 9
-8 8 -17z m-442 -42 c-5 -6 -34 20 -34 30 0 5 8 1 18 -8 10 -10 17 -20 16 -22z
m386 14 c0 -8 -4 -15 -10 -15 -5 0 -7 7 -4 15 4 8 8 15 10 15 2 0 4 -7 4 -15z
m-310 -4 c0 -5 -7 -12 -16 -15 -14 -5 -15 -4 -4 9 14 17 20 19 20 6z m227 -13
c-3 -8 -6 -5 -6 6 -1 11 2 17 5 13 3 -3 4 -12 1 -19z m146 -4 c-6 -3 -10 -17
-7 -32 3 -19 2 -23 -5 -13 -7 11 -8 29 -2 49 1 1 7 2 14 1 9 0 9 -2 0 -5z
m-476 -36 c-3 -8 -6 -5 -6 6 -1 11 2 17 5 13 3 -3 4 -12 1 -19z m81 9 c8 -10
6 -13 -7 -13 -11 0 -17 6 -14 13 3 7 6 13 8 13 1 0 7 -6 13 -13z m272 3 c0 -5
-4 -10 -10 -10 -5 0 -10 5 -10 10 0 6 5 10 10 10 6 0 10 -4 10 -10z"/>
<path d="M759 2319 c-6 -28 -3 -46 6 -46 12 0 13 32 2 43 -4 4 -7 5 -8 3z"/>
<path d="M1317 145 c-4 -8 -3 -16 1 -19 4 -3 9 4 9 15 2 23 -3 25 -10 4z"/>
<path d="M1230 104 c6 -6 7 -14 3 -17 -3 -4 -2 -7 4 -7 6 0 13 8 15 18 4 12
-1 18 -13 18 -12 0 -15 -4 -9 -12z"/>
<path d="M1363 51 c-9 -15 -10 -22 -1 -27 6 -4 8 -3 4 4 -3 5 -1 12 5 14 7 2
10 9 8 16 -3 8 -9 5 -16 -7z"/>
<path d="M1245 20 c-16 -7 -17 -9 -3 -9 9 -1 20 4 23 9 7 11 7 11 -20 0z"/>
<path d="M1290 27 c0 -2 6 -10 14 -16 11 -9 16 -9 22 1 4 7 4 10 -1 6 -4 -4
-14 -3 -22 3 -7 6 -13 9 -13 6z"/>
</g>
</svg>
